<svg width="695" height="264" viewBox="0 0 695 264" fill="none" xmlns="http://www.w3.org/2000/svg">
<path fill-rule="evenodd" clip-rule="evenodd" d="M184.691 71.8232C178.725 75.11 168.826 78.8571 162.692 80.1526C143.312 84.2488 117.45 81.0422 88.1295 70.9103C56.775 60.0724 29.5614 58.0967 12.4283 65.4125C7.83118 67.376 2.72302 64.0033 2.72302 59.0043V34.7789C2.72302 15.571 18.2941 0 37.502 0H99.8535H164.051C182.121 0 196.657 14.8593 196.259 32.9248L195.807 53.4758C195.638 61.1364 191.403 68.1273 184.691 71.8232ZM151.04 33.7006C142.471 38.3708 140.176 49.0484 146.405 55.2729C151.434 60.2974 158.119 60.675 163.621 56.2452C170.787 50.4759 171.075 44.3936 164.535 36.8839C158.572 30.0388 158.002 29.9069 151.04 33.7006ZM135.297 27.9933C131.723 24.422 124.363 27.0959 124.363 31.9679C124.363 37.3546 131.237 39.0975 134.935 34.647C137.233 31.88 137.334 30.0284 135.297 27.9933ZM32.1107 22.0559C29.784 25.2366 29.5692 28.001 31.3834 31.3887C36.0859 40.1681 47.7271 35.6452 46.2985 25.5935C45.2192 17.9855 36.6527 15.8521 32.1107 22.0559ZM11.6464 92.0016C17.3401 89.2139 27.2395 85.5107 33.645 83.7729C52.9003 78.5493 77.2023 79.6406 105.133 86.9899C149.769 98.7329 154.49 99.4182 166.418 95.8961C172.394 94.1324 181.07 89.8345 185.694 86.346C189.153 83.7365 194.106 86.2039 194.106 90.5366V98.1666C194.106 116.036 193.966 116.408 185.694 120.745C171.628 128.123 139.72 126.765 119.052 117.911C69.2414 96.5736 45.4854 95.4771 4.34021 112.615C0.235535 114.324 -0.271729 113.437 0.458069 105.826C1.1543 98.526 3.01251 96.2297 11.6464 92.0016ZM158.848 118.544C162.767 117.986 164.343 115.914 164.343 111.332C164.343 103.954 157.702 101.391 153.061 106.977C148.664 112.273 152.272 119.483 158.848 118.544ZM0 135.974C0 125.671 5.45306 121.766 29.0641 115.156C47.7189 109.933 81.0249 111.376 93.6987 117.955C96.1624 119.234 95.2595 122.958 92.4836 122.967L78.1702 123.013C51.7822 123.098 36.3676 126.804 12.2933 138.849L8.07318 140.961C4.36475 142.817 0 140.121 0 135.974ZM105.56 139.778C139.518 146.509 163.662 145.798 181.662 137.536C187.796 134.722 193.102 132.322 193.459 132.201C193.816 132.082 194.106 142.948 194.106 156.349V170.426C194.106 176.592 190.216 182.088 184.4 184.138C179.064 186.018 164.796 187.481 152.696 187.386C134.311 187.243 126.024 185.617 102.229 177.481C76.4026 168.653 71.7182 167.833 51.7615 168.655C34.5818 169.364 26.4708 171.094 14.7417 176.553L10.8096 178.383C5.81519 180.708 0.153992 176.837 0.507263 171.34C0.994934 163.776 5.43982 157.032 12.1983 153.601L19.879 149.703C31.1371 143.988 45.8762 139.02 57.2664 137.101C74.2079 134.244 78.9803 134.51 105.56 139.778ZM60.7499 155.144C62.9368 158.681 69.1042 158.601 71.3248 155.009C72.2902 153.45 71.3843 150.484 69.3138 148.415C66.0218 145.125 65.147 145.141 62.3157 148.549C60.5351 150.693 59.8311 153.659 60.7499 155.144ZM151.501 163.988C153.807 164.872 156.128 163.827 157.021 161.505C158.843 156.757 155.329 152.827 150.755 154.502C146.242 156.157 146.713 162.152 151.501 163.988ZM131.992 172.066C139.948 172.066 144.477 164.818 139.937 159.354C138.066 157.101 134.489 155.257 131.992 155.257C129.494 155.257 125.918 157.101 124.046 159.354C119.507 164.818 124.036 172.066 131.992 172.066ZM12.1381 192.046C18.1036 188.759 28.003 185.012 34.1367 183.716C53.5162 179.62 79.3788 182.827 108.699 192.958C140.054 203.796 167.267 205.772 184.4 198.456C188.998 196.493 194.106 199.866 194.106 204.865V229.09C194.106 248.298 178.535 263.869 159.327 263.869H96.9752H32.7775C14.7076 263.869 0.171753 249.01 0.569397 230.944L1.02167 210.393C1.19025 202.732 5.42596 195.742 12.1381 192.046ZM45.7883 230.168C54.3574 225.498 56.653 214.82 50.4235 208.596C45.3948 203.571 38.7098 203.194 33.2076 207.624C26.0412 213.393 25.754 219.475 32.294 226.985C38.257 233.83 38.8263 233.962 45.7883 230.168ZM61.5315 235.876C65.1057 239.447 72.4661 236.773 72.4661 231.901C72.4661 226.514 65.5922 224.771 61.8939 229.222C59.5956 231.989 59.4947 233.84 61.5315 235.876ZM164.718 241.813C167.045 238.632 167.26 235.868 165.445 232.48C160.743 223.701 149.102 228.224 150.53 238.275C151.609 245.883 160.176 248.017 164.718 241.813Z" fill="#40A3C0"/>
<path d="M256.27 123.942C253.952 123.942 252.072 123.409 250.631 122.342C249.189 121.212 248.061 119.486 247.247 117.163L228.918 66.0375C227.915 63.2129 228.072 60.8277 229.388 58.8818C230.766 56.8732 233.179 55.8689 236.625 55.8689C238.944 55.8689 240.761 56.4338 242.077 57.5637C243.393 58.6307 244.427 60.3255 245.179 62.648L259.184 104.735H254.766L269.805 62.648C270.683 60.3255 271.779 58.6307 273.095 57.5637C274.411 56.4338 276.103 55.8689 278.171 55.8689C280.239 55.8689 281.899 56.4338 283.153 57.5637C284.406 58.6307 285.44 60.3569 286.254 62.7421L300.354 104.735H296.594L310.975 62.648C311.727 60.3255 312.729 58.6307 313.983 57.5637C315.299 56.4338 317.116 55.8689 319.434 55.8689C322.317 55.8689 324.416 56.8732 325.732 58.8818C327.111 60.8277 327.267 63.2129 326.202 66.0375L307.685 117.257C306.87 119.517 305.743 121.212 304.301 122.342C302.923 123.409 301.074 123.942 298.756 123.942C296.374 123.942 294.463 123.409 293.022 122.342C291.643 121.212 290.547 119.486 289.732 117.163L276.479 79.8781H278.829L265.294 117.257C264.416 119.517 263.288 121.212 261.91 122.342C260.531 123.409 258.651 123.942 256.27 123.942Z" fill="#40A3C0"/>
<path d="M333.395 123.942C331.452 123.942 329.823 123.503 328.507 122.624C327.191 121.682 326.376 120.427 326.063 118.858C325.75 117.226 326.032 115.406 326.909 113.397L350.314 62.9304C351.442 60.4824 352.82 58.6935 354.449 57.5637C356.141 56.4338 358.053 55.8689 360.183 55.8689C362.314 55.8689 364.162 56.4338 365.729 57.5637C367.358 58.6935 368.768 60.4824 369.958 62.9304L393.363 113.397C394.366 115.406 394.71 117.226 394.397 118.858C394.146 120.49 393.363 121.745 392.047 122.624C390.794 123.503 389.227 123.942 387.347 123.942C384.841 123.942 382.898 123.377 381.52 122.247C380.204 121.118 379.013 119.297 377.948 116.786L372.872 104.829L379.452 109.631H340.726L347.4 104.829L342.324 116.786C341.196 119.297 340.037 121.118 338.846 122.247C337.656 123.377 335.839 123.942 333.395 123.942ZM359.995 74.7938L349.092 100.874L346.46 96.3551H373.812L371.18 100.874L360.183 74.7938H359.995Z" fill="#40A3C0"/>
<path d="M418.797 123.942C416.04 123.942 413.91 123.189 412.406 121.682C410.902 120.113 410.15 117.948 410.15 115.186V70.8394H395.393C393.074 70.8394 391.288 70.2431 390.035 69.0504C388.844 67.7951 388.249 66.0375 388.249 63.7778C388.249 61.4554 388.844 59.6978 390.035 58.5052C391.288 57.3126 393.074 56.7163 395.393 56.7163H442.202C444.52 56.7163 446.275 57.3126 447.466 58.5052C448.719 59.6978 449.345 61.4554 449.345 63.7778C449.345 66.0375 448.719 67.7951 447.466 69.0504C446.275 70.2431 444.52 70.8394 442.202 70.8394H427.445V115.186C427.445 117.948 426.724 120.113 425.283 121.682C423.842 123.189 421.68 123.942 418.797 123.942Z" fill="#40A3C0"/>
<path d="M464.061 123.095C461.115 123.095 458.86 122.342 457.293 120.835C455.789 119.266 455.037 117.038 455.037 114.15V65.6609C455.037 62.7735 455.789 60.5766 457.293 59.0701C458.86 57.5009 461.115 56.7163 464.061 56.7163H495.925C498.181 56.7163 499.872 57.2812 501 58.4111C502.128 59.5409 502.692 61.1729 502.692 63.307C502.692 65.504 502.128 67.1987 501 68.3914C499.872 69.5212 498.181 70.0861 495.925 70.0861H471.58V82.7027H493.857C496.05 82.7027 497.711 83.2677 498.839 84.3975C500.029 85.5274 500.624 87.1907 500.624 89.3877C500.624 91.5846 500.029 93.248 498.839 94.3778C497.711 95.5077 496.05 96.0726 493.857 96.0726H471.58V109.725H495.925C498.181 109.725 499.872 110.321 501 111.514C502.128 112.644 502.692 114.276 502.692 116.41C502.692 118.607 502.128 120.27 501 121.4C499.872 122.53 498.181 123.095 495.925 123.095H464.061Z" fill="#40A3C0"/>
<path d="M521.421 123.942C518.664 123.942 516.534 123.189 515.03 121.682C513.526 120.113 512.774 117.948 512.774 115.186V65.4726C512.774 62.648 513.526 60.4824 515.03 58.976C516.596 57.4695 518.758 56.7163 521.515 56.7163H544.638C552.157 56.7163 557.954 58.568 562.027 62.2714C566.163 65.912 568.23 70.9963 568.23 77.5243C568.23 81.7298 567.291 85.4018 565.411 88.5403C563.593 91.616 560.93 94.0012 557.421 95.696C553.975 97.328 549.714 98.144 544.638 98.144L545.39 96.4492H549.902C552.596 96.4492 554.977 97.1083 557.045 98.4264C559.113 99.6818 560.836 101.628 562.215 104.264L566.915 112.738C567.917 114.558 568.387 116.347 568.324 118.105C568.262 119.799 567.573 121.212 566.257 122.342C565.003 123.409 563.155 123.942 560.711 123.942C558.267 123.942 556.262 123.44 554.695 122.436C553.191 121.431 551.844 119.862 550.654 117.728L542.1 102.004C541.348 100.623 540.377 99.6818 539.186 99.1797C538.058 98.6147 536.742 98.3323 535.238 98.3323H530.069V115.186C530.069 117.948 529.348 120.113 527.907 121.682C526.466 123.189 524.304 123.942 521.421 123.942ZM530.069 86.0923H541.536C544.857 86.0923 547.395 85.4332 549.15 84.1151C550.904 82.7969 551.781 80.7569 551.781 77.9951C551.781 75.3587 550.904 73.3815 549.15 72.0634C547.395 70.6824 544.857 69.992 541.536 69.992H530.069V86.0923Z" fill="#40A3C0"/>
<path d="M238.505 208.681C235.999 208.681 234.056 207.99 232.678 206.609C231.362 205.228 230.704 203.282 230.704 200.772V148.516C230.704 145.943 231.424 143.997 232.866 142.679C234.307 141.298 236.343 140.607 238.975 140.607C241.168 140.607 242.892 141.047 244.145 141.926C245.461 142.742 246.651 144.122 247.717 146.068L267.926 182.412H264.636L284.75 146.068C285.878 144.122 287.069 142.742 288.322 141.926C289.638 141.047 291.393 140.607 293.586 140.607C296.092 140.607 298.004 141.298 299.32 142.679C300.698 143.997 301.387 145.943 301.387 148.516V200.772C301.387 203.282 300.73 205.228 299.414 206.609C298.098 207.99 296.155 208.681 293.586 208.681C291.079 208.681 289.137 207.99 287.758 206.609C286.442 205.228 285.784 203.282 285.784 200.772V168.383H287.758L272.625 194.746C271.748 196.127 270.808 197.162 269.805 197.853C268.865 198.543 267.581 198.889 265.952 198.889C264.385 198.889 263.1 198.543 262.098 197.853C261.095 197.162 260.187 196.127 259.372 194.746L244.145 168.289H246.307V200.772C246.307 203.282 245.649 205.228 244.333 206.609C243.017 207.99 241.075 208.681 238.505 208.681Z" fill="#40A3C0"/>
<path d="M345.545 208.869C338.84 208.869 332.95 207.457 327.874 204.632C322.798 201.745 318.851 197.727 316.031 192.58C313.274 187.433 311.895 181.439 311.895 174.597C311.895 169.45 312.678 164.774 314.245 160.568C315.874 156.362 318.161 152.753 321.106 149.74C324.114 146.727 327.686 144.436 331.822 142.867C335.958 141.235 340.532 140.419 345.545 140.419C352.25 140.419 358.109 141.831 363.122 144.656C368.198 147.481 372.145 151.466 374.965 156.614C377.785 161.698 379.195 167.692 379.195 174.597C379.195 179.744 378.38 184.42 376.751 188.626C375.184 192.831 372.897 196.472 369.889 199.548C366.944 202.561 363.404 204.883 359.268 206.515C355.132 208.084 350.558 208.869 345.545 208.869ZM345.545 194.369C348.866 194.369 351.686 193.585 354.004 192.015C356.323 190.446 358.109 188.186 359.362 185.236C360.615 182.286 361.242 178.74 361.242 174.597C361.242 168.383 359.863 163.55 357.106 160.097C354.349 156.645 350.495 154.919 345.545 154.919C342.286 154.919 339.467 155.703 337.085 157.273C334.767 158.779 332.981 161.007 331.728 163.958C330.475 166.845 329.848 170.391 329.848 174.597C329.848 180.811 331.226 185.676 333.984 189.191C336.741 192.643 340.595 194.369 345.545 194.369Z" fill="#40A3C0"/>
<path d="M397.49 208.681C394.858 208.681 392.853 207.99 391.474 206.609C390.096 205.228 389.406 203.188 389.406 200.489V149.175C389.406 146.414 390.096 144.311 391.474 142.867C392.853 141.361 394.67 140.607 396.926 140.607C398.931 140.607 400.498 140.984 401.626 141.737C402.754 142.49 404.007 143.746 405.385 145.503L435.182 182.788H432.55V148.705C432.55 146.068 433.208 144.06 434.524 142.679C435.902 141.298 437.907 140.607 440.539 140.607C443.171 140.607 445.145 141.298 446.461 142.679C447.84 144.06 448.529 146.068 448.529 148.705V200.866C448.529 203.251 447.902 205.166 446.649 206.609C445.396 207.99 443.704 208.681 441.573 208.681C439.443 208.681 437.751 208.304 436.498 207.551C435.307 206.735 434.022 205.479 432.644 203.785L402.848 166.406H405.479V200.489C405.479 203.188 404.79 205.228 403.412 206.609C402.096 207.99 400.122 208.681 397.49 208.681Z" fill="#40A3C0"/>
<path d="M485.263 208.869C482.756 208.869 480.125 208.681 477.367 208.304C474.673 207.99 472.104 207.488 469.66 206.798C467.216 206.107 465.023 205.291 463.08 204.35C461.388 203.534 460.198 202.466 459.509 201.148C458.819 199.767 458.569 198.324 458.757 196.817C458.945 195.311 459.477 193.993 460.354 192.863C461.232 191.67 462.391 190.886 463.832 190.509C465.274 190.07 466.903 190.258 468.72 191.074C471.101 192.204 473.796 193.082 476.803 193.71C479.811 194.338 482.631 194.652 485.263 194.652C489.399 194.652 492.281 194.118 493.91 193.051C495.602 191.921 496.448 190.54 496.448 188.908C496.448 187.465 495.853 186.303 494.662 185.425C493.534 184.546 491.498 183.793 488.553 183.165L477.555 180.811C471.54 179.556 467.059 177.359 464.114 174.22C461.169 171.082 459.697 167.033 459.697 162.074C459.697 158.81 460.354 155.86 461.67 153.224C463.049 150.525 464.96 148.234 467.404 146.351C469.911 144.468 472.856 143.024 476.239 142.02C479.686 140.953 483.508 140.419 487.707 140.419C490.965 140.419 494.255 140.796 497.576 141.549C500.96 142.239 503.874 143.306 506.318 144.75C507.759 145.503 508.793 146.539 509.419 147.857C510.046 149.175 510.297 150.556 510.171 152C510.046 153.381 509.545 154.605 508.667 155.672C507.853 156.739 506.725 157.461 505.284 157.838C503.905 158.151 502.245 157.9 500.302 157.084C498.485 156.268 496.417 155.672 494.098 155.295C491.843 154.856 489.649 154.636 487.519 154.636C485.2 154.636 483.226 154.919 481.597 155.484C479.968 155.986 478.715 156.739 477.837 157.743C477.023 158.748 476.615 159.909 476.615 161.227C476.615 162.545 477.148 163.675 478.213 164.617C479.341 165.495 481.378 166.249 484.323 166.876L495.226 169.23C501.305 170.548 505.848 172.714 508.855 175.727C511.863 178.74 513.367 182.663 513.367 187.496C513.367 190.76 512.709 193.71 511.393 196.346C510.077 198.983 508.198 201.242 505.754 203.126C503.31 204.946 500.365 206.358 496.918 207.362C493.472 208.367 489.587 208.869 485.263 208.869Z" fill="#40A3C0"/>
<path d="M544.735 208.681C541.978 208.681 539.847 207.927 538.343 206.421C536.839 204.852 536.087 202.686 536.087 199.924V155.578H521.33C519.012 155.578 517.226 154.982 515.973 153.789C514.782 152.534 514.187 150.776 514.187 148.516C514.187 146.194 514.782 144.436 515.973 143.244C517.226 142.051 519.012 141.455 521.33 141.455H568.139C570.458 141.455 572.212 142.051 573.403 143.244C574.656 144.436 575.283 146.194 575.283 148.516C575.283 150.776 574.656 152.534 573.403 153.789C572.212 154.982 570.458 155.578 568.139 155.578H553.382V199.924C553.382 202.686 552.662 204.852 551.22 206.421C549.779 207.927 547.617 208.681 544.735 208.681Z" fill="#40A3C0"/>
<path d="M589.998 207.833C587.053 207.833 584.797 207.08 583.231 205.574C581.727 204.004 580.975 201.776 580.975 198.889V150.399C580.975 147.512 581.727 145.315 583.231 143.809C584.797 142.239 587.053 141.455 589.998 141.455H621.862C624.118 141.455 625.81 142.02 626.938 143.15C628.066 144.279 628.63 145.911 628.63 148.046C628.63 150.242 628.066 151.937 626.938 153.13C625.81 154.26 624.118 154.825 621.862 154.825H597.518V167.441H619.794C621.988 167.441 623.648 168.006 624.776 169.136C625.967 170.266 626.562 171.929 626.562 174.126C626.562 176.323 625.967 177.986 624.776 179.116C623.648 180.246 621.988 180.811 619.794 180.811H597.518V194.463H621.862C624.118 194.463 625.81 195.06 626.938 196.252C628.066 197.382 628.63 199.014 628.63 201.148C628.63 203.345 628.066 205.009 626.938 206.138C625.81 207.268 624.118 207.833 621.862 207.833H589.998Z" fill="#40A3C0"/>
<path d="M647.359 208.681C644.602 208.681 642.471 207.927 640.967 206.421C639.463 204.852 638.711 202.686 638.711 199.924V150.211C638.711 147.386 639.463 145.221 640.967 143.714C642.534 142.208 644.696 141.455 647.453 141.455H670.575C678.095 141.455 683.891 143.306 687.964 147.01C692.1 150.65 694.168 155.735 694.168 162.263C694.168 166.468 693.228 170.14 691.348 173.279C689.531 176.354 686.868 178.74 683.359 180.434C679.912 182.066 675.651 182.882 670.575 182.882L671.327 181.188H675.839C678.534 181.188 680.915 181.847 682.983 183.165C685.051 184.42 686.774 186.366 688.152 189.002L692.852 197.476C693.855 199.297 694.325 201.086 694.262 202.843C694.199 204.538 693.51 205.95 692.194 207.08C690.941 208.147 689.092 208.681 686.649 208.681C684.205 208.681 682.199 208.178 680.633 207.174C679.129 206.17 677.782 204.601 676.591 202.466L668.038 186.743C667.286 185.362 666.314 184.42 665.124 183.918C663.996 183.353 662.68 183.071 661.176 183.071H656.006V199.924C656.006 202.686 655.286 204.852 653.845 206.421C652.403 207.927 650.241 208.681 647.359 208.681ZM656.006 170.831H667.474C670.795 170.831 673.333 170.172 675.087 168.854C676.842 167.535 677.719 165.495 677.719 162.734C677.719 160.097 676.842 158.12 675.087 156.802C673.333 155.421 670.795 154.73 667.474 154.73H656.006V170.831Z" fill="#40A3C0"/>
<path d="M244.968 250.269C242.034 250.269 239.514 249.682 237.408 248.509C235.328 247.309 233.728 245.629 232.608 243.469C231.488 241.282 230.928 238.709 230.928 235.749C230.928 233.536 231.248 231.549 231.888 229.789C232.528 228.002 233.448 226.482 234.648 225.229C235.848 223.949 237.314 222.976 239.048 222.309C240.808 221.616 242.781 221.269 244.968 221.269C246.434 221.269 247.874 221.456 249.288 221.829C250.701 222.202 251.941 222.736 253.008 223.429C253.568 223.776 253.941 224.202 254.128 224.709C254.314 225.189 254.354 225.669 254.248 226.149C254.141 226.602 253.914 226.989 253.568 227.309C253.248 227.629 252.834 227.816 252.328 227.869C251.848 227.896 251.314 227.722 250.728 227.349C249.901 226.816 249.008 226.429 248.048 226.189C247.088 225.949 246.114 225.829 245.128 225.829C243.234 225.829 241.634 226.216 240.328 226.989C239.021 227.762 238.034 228.882 237.368 230.349C236.701 231.816 236.368 233.616 236.368 235.749C236.368 237.856 236.701 239.656 237.368 241.149C238.034 242.642 239.021 243.776 240.328 244.549C241.634 245.322 243.234 245.709 245.128 245.709C246.141 245.709 247.141 245.589 248.128 245.349C249.114 245.082 250.048 244.682 250.928 244.149C251.514 243.802 252.034 243.656 252.488 243.709C252.968 243.736 253.368 243.896 253.688 244.189C254.008 244.482 254.221 244.856 254.328 245.309C254.434 245.736 254.408 246.189 254.248 246.669C254.088 247.122 253.768 247.522 253.288 247.869C252.221 248.642 250.941 249.242 249.448 249.669C247.981 250.069 246.488 250.269 244.968 250.269ZM266.069 250.269C264.042 250.269 262.282 249.856 260.789 249.029C259.295 248.202 258.135 247.029 257.309 245.509C256.482 243.962 256.069 242.149 256.069 240.069C256.069 238.496 256.295 237.096 256.749 235.869C257.229 234.616 257.909 233.549 258.789 232.669C259.669 231.762 260.722 231.082 261.949 230.629C263.175 230.149 264.549 229.909 266.069 229.909C268.095 229.909 269.855 230.322 271.349 231.149C272.842 231.976 274.002 233.149 274.829 234.669C275.655 236.189 276.069 237.989 276.069 240.069C276.069 241.642 275.829 243.056 275.349 244.309C274.895 245.562 274.229 246.642 273.349 247.549C272.469 248.429 271.415 249.109 270.189 249.589C268.962 250.042 267.589 250.269 266.069 250.269ZM266.069 246.469C267.055 246.469 267.922 246.229 268.669 245.749C269.415 245.269 269.989 244.562 270.389 243.629C270.815 242.669 271.029 241.482 271.029 240.069C271.029 237.936 270.575 236.349 269.669 235.309C268.762 234.242 267.562 233.709 266.069 233.709C265.082 233.709 264.215 233.949 263.469 234.429C262.722 234.882 262.135 235.589 261.709 236.549C261.309 237.482 261.109 238.656 261.109 240.069C261.109 242.176 261.562 243.776 262.469 244.869C263.375 245.936 264.575 246.469 266.069 246.469ZM282.676 250.189C281.876 250.189 281.262 249.976 280.836 249.549C280.409 249.096 280.196 248.456 280.196 247.629V232.509C280.196 231.682 280.409 231.056 280.836 230.629C281.262 230.202 281.862 229.989 282.636 229.989C283.409 229.989 284.009 230.202 284.436 230.629C284.862 231.056 285.076 231.682 285.076 232.509V235.229L284.636 234.229C285.222 232.816 286.129 231.749 287.356 231.029C288.609 230.282 290.022 229.909 291.596 229.909C293.169 229.909 294.462 230.202 295.476 230.789C296.489 231.376 297.249 232.269 297.756 233.469C298.262 234.642 298.516 236.136 298.516 237.949V247.629C298.516 248.456 298.302 249.096 297.876 249.549C297.449 249.976 296.836 250.189 296.036 250.189C295.236 250.189 294.609 249.976 294.156 249.549C293.729 249.096 293.516 248.456 293.516 247.629V238.189C293.516 236.669 293.222 235.562 292.636 234.869C292.076 234.176 291.196 233.829 289.996 233.829C288.529 233.829 287.356 234.296 286.476 235.229C285.622 236.136 285.196 237.349 285.196 238.869V247.629C285.196 249.336 284.356 250.189 282.676 250.189ZM312.554 250.269C310.821 250.269 309.367 249.976 308.194 249.389C307.047 248.802 306.194 247.949 305.634 246.829C305.074 245.682 304.794 244.269 304.794 242.589V234.069H302.714C302.074 234.069 301.581 233.909 301.234 233.589C300.887 233.242 300.714 232.776 300.714 232.189C300.714 231.576 300.887 231.109 301.234 230.789C301.581 230.469 302.074 230.309 302.714 230.309H304.794V226.669C304.794 225.842 305.007 225.216 305.434 224.789C305.887 224.362 306.514 224.149 307.314 224.149C308.114 224.149 308.727 224.362 309.154 224.789C309.581 225.216 309.794 225.842 309.794 226.669V230.309H314.034C314.674 230.309 315.167 230.469 315.514 230.789C315.861 231.109 316.034 231.576 316.034 232.189C316.034 232.776 315.861 233.242 315.514 233.589C315.167 233.909 314.674 234.069 314.034 234.069H309.794V242.309C309.794 243.589 310.074 244.549 310.634 245.189C311.194 245.829 312.101 246.149 313.354 246.149C313.807 246.149 314.207 246.109 314.554 246.029C314.901 245.949 315.207 245.896 315.474 245.869C315.794 245.842 316.061 245.949 316.274 246.189C316.487 246.402 316.594 246.856 316.594 247.549C316.594 248.082 316.501 248.562 316.314 248.989C316.154 249.389 315.847 249.669 315.394 249.829C315.047 249.936 314.594 250.029 314.034 250.109C313.474 250.216 312.981 250.269 312.554 250.269ZM321.506 250.189C320.679 250.189 320.039 249.976 319.586 249.549C319.159 249.096 318.946 248.456 318.946 247.629V232.509C318.946 231.682 319.159 231.056 319.586 230.629C320.012 230.202 320.612 229.989 321.386 229.989C322.159 229.989 322.759 230.202 323.186 230.629C323.612 231.056 323.826 231.682 323.826 232.509V235.029H323.426C323.799 233.429 324.532 232.216 325.626 231.389C326.719 230.562 328.172 230.069 329.986 229.909C330.546 229.856 330.986 230.002 331.306 230.349C331.652 230.669 331.852 231.176 331.906 231.869C331.959 232.536 331.799 233.082 331.426 233.509C331.079 233.909 330.546 234.149 329.826 234.229L328.946 234.309C327.319 234.469 326.092 234.976 325.266 235.829C324.439 236.656 324.026 237.829 324.026 239.349V247.629C324.026 248.456 323.812 249.096 323.386 249.549C322.959 249.976 322.332 250.189 321.506 250.189ZM343.217 250.269C341.191 250.269 339.431 249.856 337.937 249.029C336.444 248.202 335.284 247.029 334.457 245.509C333.631 243.962 333.217 242.149 333.217 240.069C333.217 238.496 333.444 237.096 333.897 235.869C334.377 234.616 335.057 233.549 335.937 232.669C336.817 231.762 337.871 231.082 339.097 230.629C340.324 230.149 341.697 229.909 343.217 229.909C345.244 229.909 347.004 230.322 348.497 231.149C349.991 231.976 351.151 233.149 351.977 234.669C352.804 236.189 353.217 237.989 353.217 240.069C353.217 241.642 352.977 243.056 352.497 244.309C352.044 245.562 351.377 246.642 350.497 247.549C349.617 248.429 348.564 249.109 347.337 249.589C346.111 250.042 344.737 250.269 343.217 250.269ZM343.217 246.469C344.204 246.469 345.071 246.229 345.817 245.749C346.564 245.269 347.137 244.562 347.537 243.629C347.964 242.669 348.177 241.482 348.177 240.069C348.177 237.936 347.724 236.349 346.817 235.309C345.911 234.242 344.711 233.709 343.217 233.709C342.231 233.709 341.364 233.949 340.617 234.429C339.871 234.882 339.284 235.589 338.857 236.549C338.457 237.482 338.257 238.656 338.257 240.069C338.257 242.176 338.711 243.776 339.617 244.869C340.524 245.936 341.724 246.469 343.217 246.469ZM364.024 250.269C361.811 250.269 360.144 249.642 359.024 248.389C357.904 247.109 357.344 245.242 357.344 242.789V223.869C357.344 223.042 357.557 222.416 357.984 221.989C358.411 221.562 359.024 221.349 359.824 221.349C360.624 221.349 361.237 221.562 361.664 221.989C362.117 222.416 362.344 223.042 362.344 223.869V242.549C362.344 243.776 362.597 244.682 363.104 245.269C363.637 245.856 364.384 246.149 365.344 246.149C365.557 246.149 365.757 246.149 365.944 246.149C366.131 246.122 366.317 246.096 366.504 246.069C366.877 246.016 367.131 246.122 367.264 246.389C367.397 246.629 367.464 247.136 367.464 247.909C367.464 248.576 367.331 249.096 367.064 249.469C366.797 249.842 366.357 250.069 365.744 250.149C365.477 250.176 365.197 250.202 364.904 250.229C364.611 250.256 364.317 250.269 364.024 250.269ZM390.737 250.189C389.91 250.189 389.27 249.962 388.817 249.509C388.39 249.029 388.177 248.362 388.177 247.509V235.349L389.257 238.429L379.617 224.869C379.27 224.389 379.11 223.882 379.137 223.349C379.19 222.789 379.417 222.322 379.817 221.949C380.217 221.549 380.777 221.349 381.497 221.349C382.03 221.349 382.51 221.482 382.937 221.749C383.39 222.016 383.817 222.429 384.217 222.989L391.377 233.149H390.257L397.457 222.989C397.884 222.402 398.297 221.989 398.697 221.749C399.097 221.482 399.59 221.349 400.177 221.349C400.87 221.349 401.404 221.536 401.777 221.909C402.177 222.256 402.377 222.696 402.377 223.229C402.404 223.762 402.217 224.322 401.817 224.909L392.257 238.429L393.297 235.349V247.509C393.297 249.296 392.444 250.189 390.737 250.189ZM411.303 250.269C409.277 250.269 407.517 249.856 406.023 249.029C404.53 248.202 403.37 247.029 402.543 245.509C401.717 243.962 401.303 242.149 401.303 240.069C401.303 238.496 401.53 237.096 401.983 235.869C402.463 234.616 403.143 233.549 404.023 232.669C404.903 231.762 405.957 231.082 407.183 230.629C408.41 230.149 409.783 229.909 411.303 229.909C413.33 229.909 415.09 230.322 416.583 231.149C418.077 231.976 419.237 233.149 420.063 234.669C420.89 236.189 421.303 237.989 421.303 240.069C421.303 241.642 421.063 243.056 420.583 244.309C420.13 245.562 419.463 246.642 418.583 247.549C417.703 248.429 416.65 249.109 415.423 249.589C414.197 250.042 412.823 250.269 411.303 250.269ZM411.303 246.469C412.29 246.469 413.157 246.229 413.903 245.749C414.65 245.269 415.223 244.562 415.623 243.629C416.05 242.669 416.263 241.482 416.263 240.069C416.263 237.936 415.81 236.349 414.903 235.309C413.997 234.242 412.797 233.709 411.303 233.709C410.317 233.709 409.45 233.949 408.703 234.429C407.957 234.882 407.37 235.589 406.943 236.549C406.543 237.482 406.343 238.656 406.343 240.069C406.343 242.176 406.797 243.776 407.703 244.869C408.61 245.936 409.81 246.469 411.303 246.469ZM432.51 250.269C430.883 250.269 429.537 249.976 428.47 249.389C427.403 248.776 426.603 247.869 426.07 246.669C425.563 245.469 425.31 243.976 425.31 242.189V232.509C425.31 231.656 425.523 231.029 425.95 230.629C426.377 230.202 426.99 229.989 427.79 229.989C428.59 229.989 429.203 230.202 429.63 230.629C430.083 231.029 430.31 231.656 430.31 232.509V242.269C430.31 243.656 430.59 244.682 431.15 245.349C431.71 246.016 432.603 246.349 433.83 246.349C435.163 246.349 436.257 245.896 437.11 244.989C437.963 244.056 438.39 242.829 438.39 241.309V232.509C438.39 231.656 438.603 231.029 439.03 230.629C439.457 230.202 440.07 229.989 440.87 229.989C441.67 229.989 442.283 230.202 442.71 230.629C443.163 231.029 443.39 231.656 443.39 232.509V247.629C443.39 249.336 442.577 250.189 440.95 250.189C440.177 250.189 439.577 249.976 439.15 249.549C438.723 249.096 438.51 248.456 438.51 247.629V244.589L439.07 245.789C438.51 247.229 437.657 248.336 436.51 249.109C435.39 249.882 434.057 250.269 432.51 250.269ZM451.154 250.189C450.327 250.189 449.687 249.976 449.234 249.549C448.807 249.096 448.594 248.456 448.594 247.629V232.509C448.594 231.682 448.807 231.056 449.234 230.629C449.661 230.202 450.261 229.989 451.034 229.989C451.807 229.989 452.407 230.202 452.834 230.629C453.261 231.056 453.474 231.682 453.474 232.509V235.029H453.074C453.447 233.429 454.181 232.216 455.274 231.389C456.367 230.562 457.821 230.069 459.634 229.909C460.194 229.856 460.634 230.002 460.954 230.349C461.301 230.669 461.501 231.176 461.554 231.869C461.607 232.536 461.447 233.082 461.074 233.509C460.727 233.909 460.194 234.149 459.474 234.229L458.594 234.309C456.967 234.469 455.741 234.976 454.914 235.829C454.087 236.656 453.674 237.829 453.674 239.349V247.629C453.674 248.456 453.461 249.096 453.034 249.549C452.607 249.976 451.981 250.189 451.154 250.189ZM485.518 250.189C484.798 250.189 484.211 250.016 483.758 249.669C483.331 249.322 482.984 248.776 482.718 248.029L474.358 224.389C474.064 223.536 474.118 222.816 474.518 222.229C474.944 221.642 475.651 221.349 476.638 221.349C477.358 221.349 477.918 221.522 478.318 221.869C478.718 222.189 479.038 222.709 479.278 223.429L486.478 244.789H484.878L492.398 223.469C492.664 222.749 492.998 222.216 493.398 221.869C493.798 221.522 494.318 221.349 494.958 221.349C495.598 221.349 496.104 221.522 496.478 221.869C496.851 222.216 497.171 222.762 497.438 223.509L504.718 244.789H503.318L510.638 223.429C510.878 222.736 511.198 222.216 511.598 221.869C511.998 221.522 512.544 221.349 513.238 221.349C514.091 221.349 514.718 221.642 515.118 222.229C515.518 222.816 515.571 223.536 515.278 224.389L506.838 248.069C506.571 248.789 506.224 249.322 505.798 249.669C505.371 250.016 504.798 250.189 504.078 250.189C503.358 250.189 502.784 250.016 502.358 249.669C501.931 249.322 501.584 248.776 501.318 248.029L494.358 228.189H495.278L488.238 248.069C487.971 248.789 487.624 249.322 487.198 249.669C486.798 250.016 486.238 250.189 485.518 250.189ZM523.706 250.269C522.293 250.269 521.026 250.002 519.906 249.469C518.813 248.909 517.946 248.162 517.306 247.229C516.693 246.296 516.386 245.242 516.386 244.069C516.386 242.629 516.759 241.496 517.506 240.669C518.253 239.816 519.466 239.202 521.146 238.829C522.826 238.456 525.079 238.269 527.906 238.269H529.906V241.149H527.946C526.293 241.149 524.973 241.229 523.986 241.389C522.999 241.549 522.293 241.829 521.866 242.229C521.466 242.602 521.266 243.136 521.266 243.829C521.266 244.709 521.573 245.429 522.186 245.989C522.799 246.549 523.653 246.829 524.746 246.829C525.626 246.829 526.399 246.629 527.066 246.229C527.759 245.802 528.306 245.229 528.706 244.509C529.106 243.789 529.306 242.962 529.306 242.029V237.429C529.306 236.096 529.013 235.136 528.426 234.549C527.839 233.962 526.853 233.669 525.466 233.669C524.693 233.669 523.853 233.762 522.946 233.949C522.066 234.136 521.133 234.456 520.146 234.909C519.639 235.149 519.186 235.216 518.786 235.109C518.413 235.002 518.119 234.789 517.906 234.469C517.693 234.122 517.586 233.749 517.586 233.349C517.586 232.949 517.693 232.562 517.906 232.189C518.119 231.789 518.479 231.496 518.986 231.309C520.213 230.802 521.386 230.442 522.506 230.229C523.653 230.016 524.693 229.909 525.626 229.909C527.546 229.909 529.119 230.202 530.346 230.789C531.599 231.376 532.533 232.269 533.146 233.469C533.759 234.642 534.066 236.162 534.066 238.029V247.629C534.066 248.456 533.866 249.096 533.466 249.549C533.066 249.976 532.493 250.189 531.746 250.189C530.999 250.189 530.413 249.976 529.986 249.549C529.586 249.096 529.386 248.456 529.386 247.629V245.709H529.706C529.519 246.642 529.146 247.456 528.586 248.149C528.053 248.816 527.373 249.336 526.546 249.709C525.719 250.082 524.773 250.269 523.706 250.269ZM548.101 250.269C546.368 250.269 544.914 249.976 543.741 249.389C542.594 248.802 541.741 247.949 541.181 246.829C540.621 245.682 540.341 244.269 540.341 242.589V234.069H538.261C537.621 234.069 537.128 233.909 536.781 233.589C536.434 233.242 536.261 232.776 536.261 232.189C536.261 231.576 536.434 231.109 536.781 230.789C537.128 230.469 537.621 230.309 538.261 230.309H540.341V226.669C540.341 225.842 540.554 225.216 540.981 224.789C541.434 224.362 542.061 224.149 542.861 224.149C543.661 224.149 544.274 224.362 544.701 224.789C545.128 225.216 545.341 225.842 545.341 226.669V230.309H549.581C550.221 230.309 550.714 230.469 551.061 230.789C551.408 231.109 551.581 231.576 551.581 232.189C551.581 232.776 551.408 233.242 551.061 233.589C550.714 233.909 550.221 234.069 549.581 234.069H545.341V242.309C545.341 243.589 545.621 244.549 546.181 245.189C546.741 245.829 547.648 246.149 548.901 246.149C549.354 246.149 549.754 246.109 550.101 246.029C550.448 245.949 550.754 245.896 551.021 245.869C551.341 245.842 551.608 245.949 551.821 246.189C552.034 246.402 552.141 246.856 552.141 247.549C552.141 248.082 552.048 248.562 551.861 248.989C551.701 249.389 551.394 249.669 550.941 249.829C550.594 249.936 550.141 250.029 549.581 250.109C549.021 250.216 548.528 250.269 548.101 250.269ZM563.937 250.269C561.724 250.269 559.817 249.856 558.217 249.029C556.617 248.202 555.377 247.029 554.497 245.509C553.644 243.989 553.217 242.189 553.217 240.109C553.217 238.082 553.631 236.309 554.457 234.789C555.311 233.269 556.471 232.082 557.937 231.229C559.431 230.349 561.124 229.909 563.017 229.909C564.404 229.909 565.644 230.136 566.737 230.589C567.857 231.042 568.804 231.696 569.577 232.549C570.377 233.402 570.977 234.442 571.377 235.669C571.804 236.869 572.017 238.229 572.017 239.749C572.017 240.229 571.844 240.602 571.497 240.869C571.177 241.109 570.711 241.229 570.097 241.229H557.257V238.349H568.497L567.857 238.949C567.857 237.722 567.671 236.696 567.297 235.869C566.951 235.042 566.431 234.416 565.737 233.989C565.071 233.536 564.231 233.309 563.217 233.309C562.097 233.309 561.137 233.576 560.337 234.109C559.564 234.616 558.964 235.349 558.537 236.309C558.137 237.242 557.937 238.362 557.937 239.669V239.949C557.937 242.136 558.444 243.776 559.457 244.869C560.497 245.936 562.017 246.469 564.017 246.469C564.711 246.469 565.484 246.389 566.337 246.229C567.217 246.042 568.044 245.736 568.817 245.309C569.377 244.989 569.871 244.856 570.297 244.909C570.724 244.936 571.057 245.082 571.297 245.349C571.564 245.616 571.724 245.949 571.777 246.349C571.831 246.722 571.751 247.109 571.537 247.509C571.351 247.909 571.017 248.256 570.537 248.549C569.604 249.136 568.524 249.576 567.297 249.869C566.097 250.136 564.977 250.269 563.937 250.269ZM578.537 250.189C577.71 250.189 577.07 249.976 576.617 249.549C576.19 249.096 575.977 248.456 575.977 247.629V232.509C575.977 231.682 576.19 231.056 576.617 230.629C577.044 230.202 577.644 229.989 578.417 229.989C579.19 229.989 579.79 230.202 580.217 230.629C580.644 231.056 580.857 231.682 580.857 232.509V235.029H580.457C580.83 233.429 581.564 232.216 582.657 231.389C583.75 230.562 585.204 230.069 587.017 229.909C587.577 229.856 588.017 230.002 588.337 230.349C588.684 230.669 588.884 231.176 588.937 231.869C588.99 232.536 588.83 233.082 588.457 233.509C588.11 233.909 587.577 234.149 586.857 234.229L585.977 234.309C584.35 234.469 583.124 234.976 582.297 235.829C581.47 236.656 581.057 237.829 581.057 239.349V247.629C581.057 248.456 580.844 249.096 580.417 249.549C579.99 249.976 579.364 250.189 578.537 250.189ZM605.62 250.189C604.794 250.189 604.14 249.962 603.66 249.509C603.207 249.029 602.98 248.349 602.98 247.469V224.389C602.98 223.509 603.207 222.842 603.66 222.389C604.14 221.909 604.82 221.669 605.7 221.669H619.66C620.354 221.669 620.874 221.842 621.22 222.189C621.567 222.536 621.74 223.029 621.74 223.669C621.74 224.336 621.567 224.856 621.22 225.229C620.874 225.576 620.354 225.749 619.66 225.749H608.1V233.709H618.82C619.487 233.709 619.994 233.882 620.34 234.229C620.714 234.576 620.9 235.069 620.9 235.709C620.9 236.376 620.714 236.896 620.34 237.269C619.994 237.616 619.487 237.789 618.82 237.789H608.1V247.469C608.1 249.282 607.274 250.189 605.62 250.189ZM633.243 250.269C631.03 250.269 629.363 249.642 628.243 248.389C627.123 247.109 626.563 245.242 626.563 242.789V223.869C626.563 223.042 626.776 222.416 627.203 221.989C627.63 221.562 628.243 221.349 629.043 221.349C629.843 221.349 630.456 221.562 630.883 221.989C631.336 222.416 631.563 223.042 631.563 223.869V242.549C631.563 243.776 631.816 244.682 632.323 245.269C632.856 245.856 633.603 246.149 634.563 246.149C634.776 246.149 634.976 246.149 635.163 246.149C635.35 246.122 635.536 246.096 635.723 246.069C636.096 246.016 636.35 246.122 636.483 246.389C636.616 246.629 636.683 247.136 636.683 247.909C636.683 248.576 636.55 249.096 636.283 249.469C636.016 249.842 635.576 250.069 634.963 250.149C634.696 250.176 634.416 250.202 634.123 250.229C633.83 250.256 633.536 250.269 633.243 250.269ZM648.061 250.269C646.034 250.269 644.274 249.856 642.781 249.029C641.288 248.202 640.128 247.029 639.301 245.509C638.474 243.962 638.061 242.149 638.061 240.069C638.061 238.496 638.288 237.096 638.741 235.869C639.221 234.616 639.901 233.549 640.781 232.669C641.661 231.762 642.714 231.082 643.941 230.629C645.168 230.149 646.541 229.909 648.061 229.909C650.088 229.909 651.848 230.322 653.341 231.149C654.834 231.976 655.994 233.149 656.821 234.669C657.648 236.189 658.061 237.989 658.061 240.069C658.061 241.642 657.821 243.056 657.341 244.309C656.888 245.562 656.221 246.642 655.341 247.549C654.461 248.429 653.408 249.109 652.181 249.589C650.954 250.042 649.581 250.269 648.061 250.269ZM648.061 246.469C649.048 246.469 649.914 246.229 650.661 245.749C651.408 245.269 651.981 244.562 652.381 243.629C652.808 242.669 653.021 241.482 653.021 240.069C653.021 237.936 652.568 236.349 651.661 235.309C650.754 234.242 649.554 233.709 648.061 233.709C647.074 233.709 646.208 233.949 645.461 234.429C644.714 234.882 644.128 235.589 643.701 236.549C643.301 237.482 643.101 238.656 643.101 240.069C643.101 242.176 643.554 243.776 644.461 244.869C645.368 245.936 646.568 246.469 648.061 246.469ZM669.357 250.189C668.691 250.189 668.117 250.029 667.637 249.709C667.157 249.362 666.771 248.829 666.477 248.109L660.677 233.309C660.437 232.669 660.357 232.109 660.437 231.629C660.544 231.122 660.797 230.722 661.197 230.429C661.597 230.136 662.131 229.989 662.797 229.989C663.384 229.989 663.864 230.136 664.237 230.429C664.611 230.696 664.931 231.216 665.197 231.989L670.037 245.309H669.117L674.117 231.669C674.331 231.082 674.611 230.656 674.957 230.389C675.331 230.122 675.811 229.989 676.397 229.989C676.984 229.989 677.464 230.136 677.837 230.429C678.211 230.696 678.491 231.109 678.677 231.669L683.597 245.309H682.757L687.637 231.869C687.904 231.149 688.237 230.656 688.637 230.389C689.064 230.122 689.531 229.989 690.037 229.989C690.677 229.989 691.171 230.149 691.517 230.469C691.864 230.789 692.064 231.202 692.117 231.709C692.171 232.189 692.077 232.722 691.837 233.309L686.077 248.109C685.811 248.802 685.424 249.322 684.917 249.669C684.437 250.016 683.864 250.189 683.197 250.189C682.531 250.189 681.944 250.016 681.437 249.669C680.957 249.322 680.584 248.802 680.317 248.109L675.077 234.229H677.357L672.237 248.069C671.971 248.789 671.597 249.322 671.117 249.669C670.637 250.016 670.051 250.189 669.357 250.189Z" fill="#40A3C0"/>
</svg>
